<?xml version="1.0" standalone="no"?>
<!DOCTYPE svg PUBLIC "-//W3C//DTD SVG 20010904//EN"
 "http://www.w3.org/TR/2001/REC-SVG-20010904/DTD/svg10.dtd">
<svg version="1.0" xmlns="http://www.w3.org/2000/svg"
 width="512.000000pt" height="512.000000pt" viewBox="0 0 512.000000 512.000000"
 preserveAspectRatio="xMidYMid meet">
<metadata>
Created by potrace 1.11, written by Peter Selinger 2001-2013
</metadata>
<g transform="translate(0.000000,512.000000) scale(0.100000,-0.100000)"
fill="#000000" stroke="none">
<path d="M2899 4747 c-29 -16 -54 -40 -74 -72 l-30 -48 -1 -256 c-1 -247 0
-258 21 -301 30 -58 54 -79 116 -100 75 -26 131 -14 192 39 63 56 68 82 67
357 -1 150 -6 257 -12 276 -38 109 -174 160 -279 105z"/>
<path d="M2106 4540 c-88 -26 -151 -117 -142 -207 4 -42 26 -88 129 -264 106
-184 130 -218 168 -244 101 -69 237 -29 287 84 33 73 22 127 -56 262 -174 302
-183 316 -238 350 -36 22 -105 31 -148 19z"/>
<path d="M3721 4516 c-35 -24 -60 -56 -113 -146 -37 -63 -73 -123 -79 -134
-89 -151 -109 -196 -109 -245 1 -174 202 -265 328 -148 21 19 83 117 157 248
126 223 133 240 109 318 -37 125 -186 179 -293 107z"/>
<path d="M4374 3925 c-70 -25 -407 -225 -445 -264 -35 -37 -65 -120 -55 -153
3 -7 7 -25 10 -40 8 -37 61 -95 106 -117 61 -29 125 -21 213 27 41 23 77 39
81 37 3 -3 4 -2 1 2 -4 5 41 34 195 121 115 65 144 105 145 203 0 55 -4 72
-28 107 -47 72 -143 105 -223 77z"/>
<path d="M2835 3754 c-118 -24 -276 -91 -332 -141 -28 -25 -57 -26 -133 -7
-14 3 -83 7 -155 9 -241 6 -455 -60 -653 -202 -68 -49 -173 -148 -229 -218
-53 -65 -125 -201 -163 -305 -35 -96 -35 -96 -65 -90 -16 3 -66 5 -110 4 -541
-11 -887 -567 -659 -1060 19 -43 47 -93 62 -113 44 -60 144 -155 205 -195 59
-38 173 -89 223 -100 228 -47 430 -9 611 115 54 37 137 118 171 167 l23 32
-243 1 c-134 0 -284 0 -334 -1 -154 -2 -247 33 -337 125 -120 122 -145 321
-60 477 38 70 130 152 200 178 95 35 166 41 258 19 61 -14 92 -31 170 -89 76
-58 102 -69 149 -63 108 11 179 117 147 215 -11 33 -68 101 -110 130 l-21 15
20 72 c57 205 198 374 392 472 82 41 235 84 275 76 13 -2 23 -1 23 2 0 10 106
2 185 -14 273 -54 483 -241 574 -511 49 -145 45 -325 -10 -499 -35 -112 -35
-156 2 -210 82 -119 247 -86 302 61 31 83 61 217 72 324 2 14 3 28 4 32 2 16
88 -4 149 -33 77 -37 151 -110 186 -181 33 -69 39 -97 42 -188 5 -155 -83
-298 -225 -366 -29 -14 -63 -28 -75 -30 -11 -3 -28 -7 -36 -9 -8 -2 -167 -4
-353 -4 l-338 -1 22 -32 c103 -147 293 -262 484 -294 98 -17 249 -5 339 26
160 55 269 131 364 254 209 271 206 659 -7 921 l-47 59 17 46 c40 107 55 280
35 416 -15 104 -80 263 -145 358 -67 97 -206 217 -312 269 -49 23 -114 50
-114 47 0 -1 -13 4 -30 10 -101 39 -285 49 -410 24z"/>
<path d="M4173 3093 c-82 -29 -134 -108 -129 -196 4 -68 29 -112 85 -152 l43
-30 276 0 277 0 41 27 c57 37 94 112 89 179 -3 27 -11 62 -19 77 -21 40 -78
89 -117 98 -60 14 -503 11 -546 -3z"/>
<path d="M2355 1892 c-11 -10 -114 -88 -230 -172 -115 -85 -223 -168 -239
-184 -84 -90 -108 -246 -54 -357 36 -71 89 -125 158 -158 76 -36 201 -37 273
-3 72 34 139 106 167 177 22 58 23 72 24 373 1 300 0 314 -18 328 -27 19 -58
18 -81 -4z"/>
<path d="M1318 1091 c-131 -97 -247 -187 -258 -199 -12 -12 -33 -46 -48 -75
-24 -45 -27 -64 -27 -142 0 -105 20 -155 88 -227 67 -69 124 -92 232 -92 109
-1 159 18 228 88 94 93 99 121 99 490 0 298 0 300 -22 318 -12 10 -30 18 -39
17 -9 0 -123 -80 -253 -178z"/>
</g>
</svg>
